Heaven's Gate (1980)

Director: Michael Cimino

Heaven's Gate is a 1980 American Western film based on the Johnson County War, a dispute between land barons and European immigrants in Wyoming in the 1890s. The cast included Kris Kristofferson, Christopher Walken, Isabelle Huppert, Jeff Bridges, John Hurt, Sam Waterston, Brad Dourif, Joseph Cotten, Geoffrey Lewis, Richard Masur, Terry O'Quinn, Mickey Rourke, and Willem Dafoe in his first film role.

The film's production was plagued by cost and time overruns, negative press, and rumors about director Michael Cimino's allegedly overbearing directorial style. It is generally considered one of the biggest box office bombs of all-time. It opened to poor reviews and earned less than $3 million domestically (from an estimated budget of $44 million), eventually contributing to the collapse of its studio, United Artists, and effectively destroying the reputation of Cimino, previously one of the ascendant directors of Hollywood owing to his celebrated 1978 film The Deer Hunter, which had won Academy Awards for Best Picture and Best Director in 1979.

Cimino had an expansive and ambitious vision for the film and pushed the film far over its planned budget. The movie's financial problems and United Artists' subsequent demise led to a move away from director-driven film production in the American film industry and a shift toward greater studio control of films.

In a 25 July 2005 interview, Kris Kristofferson, actor, attributed the poor performance of the film to "political assassination" by the U.S. government:

"The film was about a dirty piece of American history that was the Johnson County Wars, where the money people, the Cattlemens' Association, had a death list, had an army of mercenaries that was 'OK'ed by the US government to go in and wipe out these citizens that were poaching their cattle."

Media Info:
General
Complete name                    : J:\Seeding\Heaven's Gate (1980)[DVDRip][big_dad_e™]\Heaven's Gate (1980)[DVDRip][big_dad_e™].avi
Format                           : AVI
Format/Info                      : Audio Video Interleave
Format profile                   : OpenDML
File size                        : 1.88 GiB
Duration                         : 3h 38mn
Overall bit rate                 : 1 233 Kbps
Movie name                       : GATE.Title1.DVDRip
Writing application              : Lavf52.78.4
Original source form/Name        : GATE

Video
ID                               : 0
Format                           : MPEG-4 Visual
Format profile                   : Advanced Simple@L5
Format settings, BVOP            : 2
Format settings, QPel            : No
Format settings, GMC             : No warppoints
Format settings, Matrix          : Default (H.263)
Muxing mode                      : Packed bitstream
Codec ID                         : XVID
Codec ID/Hint                    : XviD
Duration                         : 3h 38mn
Bit rate                         : 523 Kbps
Width                            : 600 pixels
Height                           : 262 pixels
Display aspect ratio             : 2.25:1
Frame rate                       : 23.976 fps
Color space                      : YUV
Chroma subsampling               : 4:2:0
Bit depth                        : 8 bits
Scan type                        : Progressive
Compression mode                 : Lossy
Bits/(Pixel*Frame)               : 0.139
Stream size                      : 819 MiB (42%)
Writing library                  : XviD 

Audio
ID                               : 1
Format                           : MPEG Audio
Codec ID                         : 55
Codec ID/Hint                    : MP3
Duration                         : 3h 38mn
Bit rate                         : 320 Kbps
Channel(s)                       : 2 channels
Sampling rate                    : 48.0 KHz
Compression mode                 : Lossy
Stream size                      : 268 MiB (14%)
Alignment                        : Aligned on interleaves
Interleave, duration             : 26 ms (0.63 video frame)
Interleave, preload duration     : 24 ms

File Scan:
Malwarebytes' Anti-Malware 1.50.1.1100
www.malwarebytes.org

Database version: 5987
3/8/2011 1:47:34 AM
mbam-log-2011-03-08 (01-47-34).txt

Scan type: Quick scan
Objects scanned: 5
Time elapsed: 49 second(s)

Memory Processes Infected: 0
Memory Modules Infected: 0
Registry Keys Infected: 0
Registry Values Infected: 0
Registry Data Items Infected: 0
Folders Infected: 0
Files Infected: 0

Memory Processes Infected:
(No malicious items detected)

Memory Modules Infected:
(No malicious items detected)

Registry Keys Infected:
(No malicious items detected)

Registry Values Infected:
(No malicious items detected)

Registry Data Items Infected:
(No malicious items detected)

Folders Infected:
(No malicious items detected)

Files Infected:
(No malicious items detected)

When using TPB please read these important notes:
  
01- Anti-malware apps may warn about keygens, patches, cracks, etc., because of 
    their capabilities, (generating codes, etc.). Sometimes they're added to 
    the virus/spyware database and will be detected as malware. If you don't trust
    the keygens, patches, cracks, etc., don't use them. 
    
02- Before running .exe-files, keygens, patches, cracks, etc., always check first 
    if they can be unpacked. Often some third party added a virus to the 
    original file, repacked it and uploaded it again.

03- Letting anti-malware apps send scan results to their companies can cause
    keygens, patches, cracks, etc., to be added to their virus-database.

04- Firewalls which are set to automatically determine connections will allow 
    apps & malware!. Avoid this by manually configuring your firewall.

05- Usually (new) torrents with many downloads and seeders in a brief period is
    suspicious! Torrents with the Skull & Crossbones icon are trusted.

06- Some people use multiple accounts and post fake comments 
    and/or files trying to spread confusion. They seldom seriously
    comment or have any torrents, or a just a few to look passable.

07- Clicking on unknown links can cause malware to be installed on your machine.
  
08- In general often there are more fake and negative comments than reliable and
    positive comments.

09- In some countries uploading/downloading copyright protected material is 
    forbidden, but showing some appreciation to reliable up-loaders is not.

10- Posting fake and negative comments or fake/infected uploads on TPB can result
    in getting banned from TPB!

Requests?  Find me on SuprBay. http://forum.suprbay.org
 

For reporting bad or suspicious torrents:  
http://forum.suprbay.org/forumdisplay.php?fid=29

For more of my torrents: 
https://thepiratebay.org/user/big_dad_e/  (Secured)

All torrents scanned with:
Norton Anti-virus
Malwarebytes' Anti-malware
 
http://www.pirate-party.us/

ALWAYS SEED & THANKS SEEDERS!